<svg width="256" height="256" viewBox="0 0 256 256" fill="none" xmlns="http://www.w3.org/2000/svg">
<g clip-path="url(#clip0_1874_1185)">
<mask id="mask0_1874_1185" style="mask-type:luminance" maskUnits="userSpaceOnUse" x="68" y="68" width="120" height="120">
<path d="M188 68H68V188H188V68Z" fill="white"/>
</mask>
<g mask="url(#mask0_1874_1185)">
<path fill-rule="evenodd" clip-rule="evenodd" d="M128 68C94.8632 68 68 94.8632 68 128V179C68 183.97 72.0296 188 77 188H128C161.137 188 188 161.137 188 128C188 94.8632 161.137 68 128 68Z" fill="#FF3300"/>
<path d="M156.05 131.094C155.372 130.114 154.254 129.633 152.949 129.724C149.139 130.047 146.853 129.252 143.895 126.549C143.685 126.356 143.5 126.133 143.312 125.914C142.653 125.137 141.65 123.951 139.862 124.188C138.087 124.408 136.856 125.373 136.393 126.912C133.914 135.181 129.465 144.406 125.053 143.086C122.283 142.274 123.738 134.548 124.609 129.931C125.025 127.725 125.383 125.82 125.378 124.596C125.354 117.54 121.629 112.833 115.654 112.309C105.925 111.472 96.8036 121.048 94.2356 124.006C93.3164 125.066 93.0464 126.424 93.4964 127.728C93.9668 129.082 95.126 130.124 96.452 130.38C97.6376 130.611 98.8052 130.176 99.6548 129.194C103.538 124.722 112.232 118.922 115.884 120.439C117.363 121.047 118.005 123.002 117.793 126.253C117.688 127.896 117.338 129.733 116.967 131.677C116.037 136.549 114.982 142.072 117.607 146.397C118.978 148.656 121.027 150.068 123.536 150.482C124.05 150.568 124.574 150.61 125.107 150.61C127.801 150.61 130.644 149.535 132.973 147.588C136.598 144.549 139.383 140.408 141.669 134.635C141.75 134.689 141.83 134.743 141.912 134.796C144.982 136.813 148.666 137.6 153.146 137.221C154.555 137.102 155.703 136.312 156.301 135.045C156.914 133.747 156.814 132.195 156.051 131.092" fill="white"/>
</g>
</g>
<defs>
<clipPath id="clip0_1874_1185">
<rect width="120" height="120" fill="white" transform="translate(68 68)"/>
</clipPath>
</defs>
</svg>
