<svg width="256" height="256" viewBox="0 0 256 256" fill="none" xmlns="http://www.w3.org/2000/svg">
<g clip-path="url(#clip0_1874_1226)">
<circle opacity="0.2" cx="130" cy="128" r="128" fill="white"/>
<g clip-path="url(#clip1_1874_1226)">
<mask id="mask0_1874_1226" style="mask-type:luminance" maskUnits="userSpaceOnUse" x="70" y="68" width="120" height="120">
<path d="M190 68H70V188H190V68Z" fill="white"/>
</mask>
<g mask="url(#mask0_1874_1226)">
<path fill-rule="evenodd" clip-rule="evenodd" d="M70 128C70 94.8632 96.8632 68 130 68C163.137 68 190 94.8632 190 128C190 161.137 163.137 188 130 188H79C74.0296 188 70 183.97 70 179V128ZM154.949 129.724C156.254 129.633 157.372 130.114 158.05 131.094L158.051 131.092C158.814 132.195 158.914 133.747 158.301 135.045C157.703 136.312 156.555 137.102 155.146 137.221C150.666 137.6 146.982 136.813 143.912 134.796C143.83 134.743 143.75 134.689 143.669 134.635C141.383 140.408 138.598 144.549 134.973 147.588C132.644 149.535 129.801 150.61 127.107 150.61C126.574 150.61 126.05 150.568 125.536 150.482C123.027 150.068 120.978 148.656 119.607 146.397C116.983 142.073 118.037 136.55 118.967 131.679L118.967 131.677C119.338 129.733 119.688 127.896 119.793 126.253C120.005 123.002 119.363 121.047 117.884 120.439C114.232 118.922 105.538 124.722 101.655 129.194C100.805 130.176 99.6376 130.611 98.452 130.38C97.126 130.124 95.9668 129.082 95.4964 127.728C95.0464 126.424 95.3164 125.066 96.2356 124.006C98.8036 121.048 107.925 111.472 117.654 112.309C123.629 112.833 127.354 117.54 127.378 124.596C127.383 125.82 127.025 127.725 126.609 129.931C125.738 134.548 124.283 142.274 127.053 143.086C131.465 144.406 135.914 135.181 138.393 126.912C138.856 125.373 140.087 124.408 141.862 124.188C143.649 123.951 144.652 125.135 145.311 125.913L145.312 125.914C145.337 125.943 145.361 125.972 145.386 126.001C145.549 126.191 145.713 126.381 145.895 126.549C148.853 129.252 151.139 130.047 154.949 129.724Z" fill="white"/>
</g>
</g>
</g>
<defs>
<clipPath id="clip0_1874_1226">
<rect width="256" height="256" fill="white"/>
</clipPath>
<clipPath id="clip1_1874_1226">
<rect width="120" height="120" fill="white" transform="translate(70 68)"/>
</clipPath>
</defs>
</svg>
