<svg width="256" height="256" viewBox="0 0 256 256" fill="none" xmlns="http://www.w3.org/2000/svg">
<g clip-path="url(#clip0_1877_7225)">
<rect width="256" height="256" fill="black"/>
<g clip-path="url(#clip1_1877_7225)">
<mask id="mask0_1877_7225" style="mask-type:luminance" maskUnits="userSpaceOnUse" x="0" y="0" width="256" height="256">
<path d="M256 0H0V256H256V0Z" fill="white"/>
</mask>
<g mask="url(#mask0_1877_7225)">
<path fill-rule="evenodd" clip-rule="evenodd" d="M128 0C57.3082 0 0 57.3082 0 128V236.8C0 247.404 8.59648 256 19.2 256H128C198.692 256 256 198.692 256 128C256 57.3082 198.692 0 128 0Z" fill="#FF3300"/>
<path d="M187.84 134.6C186.393 132.511 184.008 131.484 181.225 131.679C173.097 132.367 168.22 130.67 161.91 124.905C161.462 124.493 161.067 124.017 160.665 123.551C159.26 121.892 157.12 119.363 153.305 119.867C149.519 120.338 146.893 122.396 145.905 125.678C140.616 143.319 131.126 163 121.713 160.184C115.804 158.451 118.907 141.97 120.765 132.119C121.654 127.414 122.417 123.349 122.406 120.737C122.355 105.685 114.409 95.6442 101.663 94.5255C80.9061 92.7412 61.4476 113.17 55.9692 119.48C54.0082 121.741 53.4322 124.639 54.3922 127.419C55.3957 130.309 57.8687 132.531 60.6975 133.077C63.2268 133.571 65.7177 132.641 67.5301 130.547C75.8143 121.006 94.3615 108.634 102.152 111.87C105.308 113.167 106.678 117.338 106.225 124.273C106.002 127.777 105.254 131.697 104.463 135.844C102.479 146.238 100.229 158.021 105.828 167.247C108.754 172.065 113.124 175.078 118.477 175.962C119.572 176.146 120.691 176.236 121.828 176.236C127.575 176.236 133.64 173.942 138.609 169.787C146.342 163.305 152.284 154.47 157.161 142.154C157.332 142.269 157.504 142.385 157.678 142.497C164.229 146.801 172.088 148.48 181.645 147.671C184.65 147.418 187.1 145.733 188.375 143.03C189.683 140.26 189.471 136.95 187.842 134.597" fill="white"/>
</g>
</g>
</g>
<defs>
<clipPath id="clip0_1877_7225">
<rect width="256" height="256" fill="white"/>
</clipPath>
<clipPath id="clip1_1877_7225">
<rect width="256" height="256" fill="white"/>
</clipPath>
</defs>
</svg>
