<svg width="256" height="256" viewBox="0 0 256 256" fill="none" xmlns="http://www.w3.org/2000/svg">
<g clip-path="url(#clip0_1877_7233)">
<mask id="mask0_1877_7233" style="mask-type:luminance" maskUnits="userSpaceOnUse" x="4" y="2" width="252" height="252">
<path d="M256 2H4V254H256V2Z" fill="white"/>
</mask>
<g mask="url(#mask0_1877_7233)">
<path fill-rule="evenodd" clip-rule="evenodd" d="M4 128C4 58.4127 60.4127 2 130 2C199.587 2 256 58.4127 256 128C256 197.587 199.587 254 130 254H22.9C12.4622 254 4 245.538 4 235.1V128ZM182.393 131.621C185.132 131.43 187.481 132.44 188.905 134.496L188.907 134.494C190.51 136.81 190.719 140.068 189.432 142.795C188.177 145.456 185.765 147.114 182.806 147.364C173.399 148.16 165.663 146.507 159.214 142.271C159.043 142.16 158.874 142.046 158.705 141.933C153.905 154.057 148.056 162.753 140.443 169.134C135.551 173.224 129.582 175.482 123.924 175.482C122.805 175.482 121.704 175.394 120.625 175.212C115.356 174.343 111.055 171.377 108.174 166.634C102.664 157.553 104.877 145.955 106.83 135.725L106.831 135.721C107.61 131.639 108.346 127.781 108.565 124.331C109.011 117.504 107.663 113.399 104.555 112.121C96.8871 108.936 78.6297 121.115 70.475 130.507C68.6908 132.569 66.2389 133.483 63.7491 132.997C60.9645 132.46 58.5302 130.273 57.5423 127.428C56.5973 124.691 57.1643 121.839 59.0947 119.613C64.4875 113.402 83.642 93.2919 104.074 95.0484C116.621 96.1496 124.443 106.033 124.494 120.851C124.504 123.421 123.753 127.423 122.878 132.055C121.049 141.752 117.995 157.975 123.811 159.681C133.077 162.453 142.418 143.08 147.625 125.714C148.597 122.484 151.183 120.458 154.91 119.994C158.662 119.498 160.769 121.984 162.152 123.617L162.155 123.62C162.207 123.68 162.259 123.741 162.311 123.801C162.654 124.201 162.997 124.601 163.38 124.953C169.592 130.628 174.392 132.299 182.393 131.621Z" fill="white"/>
</g>
</g>
<defs>
<clipPath id="clip0_1877_7233">
<rect width="252" height="252" fill="white" transform="translate(4 2)"/>
</clipPath>
</defs>
</svg>
