<svg width="28" height="14" viewBox="0 0 28 14" fill="none" xmlns="http://www.w3.org/2000/svg">
<path fill-rule="evenodd" clip-rule="evenodd" d="M26 1H2C1.44772 1 1 1.44772 1 2V12C1 12.5523 1.44772 13 2 13H26C26.5523 13 27 12.5523 27 12V2C27 1.44772 26.5523 1 26 1ZM2 0C0.895431 0 0 0.89543 0 2V12C0 13.1046 0.895431 14 2 14H26C27.1046 14 28 13.1046 28 12V2C28 0.895431 27.1046 0 26 0H2Z" fill="black"/>
<path d="M20.8917 10.8142C20.5316 10.8142 20.2106 10.7518 19.9289 10.6268C19.6472 10.4994 19.4243 10.312 19.2601 10.0646C19.0984 9.81469 19.0176 9.50357 19.0176 9.13119C19.0176 8.81761 19.0751 8.55426 19.1903 8.34112C19.3054 8.12798 19.4622 7.9565 19.6607 7.82665C19.8591 7.69681 20.0845 7.59882 20.3368 7.53267C20.5916 7.46653 20.8586 7.41998 21.1379 7.39303C21.4662 7.35874 21.7308 7.32689 21.9317 7.29749C22.1325 7.26564 22.2783 7.2191 22.369 7.15785C22.4596 7.0966 22.5049 7.00596 22.5049 6.88592V6.86387C22.5049 6.63114 22.4314 6.45107 22.2844 6.32368C22.1399 6.19629 21.9341 6.13259 21.6671 6.13259C21.3853 6.13259 21.1612 6.19506 20.9946 6.32001C20.828 6.4425 20.7178 6.59684 20.6639 6.78302L19.216 6.66543C19.2895 6.32246 19.4341 6.02603 19.6496 5.77614C19.8652 5.52381 20.1433 5.33027 20.4838 5.19553C20.8268 5.05834 21.2237 4.98975 21.6744 4.98975C21.988 4.98975 22.2881 5.02649 22.5747 5.09999C22.8638 5.17348 23.1198 5.2874 23.3428 5.44174C23.5681 5.59608 23.7458 5.79452 23.8756 6.03705C24.0054 6.27713 24.0704 6.56499 24.0704 6.90062V10.7077H22.5858V9.92494H22.5417C22.451 10.1013 22.3298 10.2569 22.1779 10.3916C22.026 10.5239 21.8435 10.628 21.6303 10.704C21.4172 10.7775 21.171 10.8142 20.8917 10.8142ZM21.34 9.73385C21.5703 9.73385 21.7736 9.68853 21.95 9.59788C22.1264 9.50479 22.2648 9.37985 22.3653 9.22306C22.4657 9.06627 22.5159 8.88866 22.5159 8.69022V8.09124C22.4669 8.12308 22.3996 8.15248 22.3138 8.17943C22.2305 8.20393 22.1362 8.2272 22.0309 8.24925C21.9255 8.26885 21.8202 8.28722 21.7148 8.30437C21.6095 8.31907 21.514 8.33254 21.4282 8.34479C21.2445 8.37174 21.084 8.41461 20.9468 8.47341C20.8096 8.53221 20.7031 8.61183 20.6271 8.71227C20.5512 8.81026 20.5132 8.93275 20.5132 9.07974C20.5132 9.29288 20.5904 9.45579 20.7447 9.56849C20.9015 9.67873 21.0999 9.73385 21.34 9.73385Z" fill="black"/>
<path d="M18.78 5.06325V6.23917H15.3809V5.06325H18.78ZM16.1526 3.71094H17.718V8.97318C17.718 9.11772 17.74 9.23041 17.7841 9.31126C17.8282 9.38965 17.8895 9.44478 17.9679 9.47662C18.0487 9.50847 18.1418 9.5244 18.2472 9.5244C18.3207 9.5244 18.3942 9.51827 18.4677 9.50602C18.5411 9.49132 18.5975 9.4803 18.6367 9.47295L18.8829 10.6378C18.8045 10.6623 18.6943 10.6905 18.5522 10.7224C18.4101 10.7567 18.2374 10.7775 18.034 10.7848C17.6568 10.7995 17.326 10.7493 17.0418 10.6342C16.7601 10.519 16.5409 10.3402 16.3841 10.0977C16.2273 9.85512 16.1501 9.54889 16.1526 9.17897V3.71094Z" fill="black"/>
<path d="M12.683 10.8179C12.1024 10.8179 11.6026 10.7003 11.1837 10.4651C10.7672 10.2275 10.4463 9.89186 10.2209 9.45824C9.9955 9.02217 9.88281 8.50648 9.88281 7.91117C9.88281 7.33056 9.9955 6.821 10.2209 6.38248C10.4463 5.94396 10.7635 5.6022 11.1727 5.35722C11.5842 5.11224 12.0668 4.98975 12.6205 4.98975C12.9929 4.98975 13.3395 5.04977 13.6605 5.16981C13.9838 5.2874 14.2656 5.46501 14.5056 5.70265C14.7482 5.94028 14.9368 6.23916 15.0716 6.59929C15.2063 6.95696 15.2737 7.37589 15.2737 7.85605V8.286H10.5075V7.31586H13.8001C13.8001 7.09048 13.7511 6.89082 13.6531 6.71688C13.5551 6.54294 13.4191 6.40698 13.2452 6.30898C13.0737 6.20854 12.8741 6.15832 12.6462 6.15832C12.4086 6.15832 12.1979 6.21344 12.0142 6.32368C11.8329 6.43147 11.6908 6.57724 11.5879 6.76098C11.485 6.94226 11.4323 7.14438 11.4299 7.36731V8.28967C11.4299 8.56895 11.4813 8.81026 11.5842 9.0136C11.6896 9.21694 11.8378 9.37372 12.0289 9.48397C12.22 9.59421 12.4466 9.64933 12.7087 9.64933C12.8826 9.64933 13.0419 9.62483 13.1864 9.57584C13.331 9.52684 13.4547 9.45335 13.5576 9.35535C13.6605 9.25736 13.7389 9.13732 13.7927 8.99523L15.2406 9.09077C15.1671 9.43865 15.0164 9.74243 14.7886 10.0021C14.5632 10.2593 14.2717 10.4602 13.914 10.6048C13.5588 10.7469 13.1484 10.8179 12.683 10.8179Z" fill="black"/>
<path d="M3.81445 10.7075V3.18164H6.82775C7.38141 3.18164 7.84321 3.26371 8.21313 3.42785C8.58306 3.59199 8.86111 3.81982 9.0473 4.11135C9.23349 4.40043 9.32658 4.73361 9.32658 5.11089C9.32658 5.40487 9.26778 5.66332 9.15019 5.88626C9.0326 6.10674 8.87091 6.28803 8.66513 6.43012C8.46179 6.56976 8.22905 6.66898 7.96692 6.72778V6.80127C8.25355 6.81352 8.52181 6.89436 8.77169 7.0438C9.02403 7.19324 9.22859 7.40271 9.38538 7.67219C9.54217 7.93922 9.62056 8.2577 9.62056 8.62762C9.62056 9.02695 9.52134 9.3834 9.32291 9.69698C9.12692 10.0081 8.83661 10.2543 8.45199 10.4356C8.06737 10.6169 7.59332 10.7075 7.02986 10.7075H3.81445ZM5.40562 9.40667H6.70281C7.14623 9.40667 7.46961 9.32215 7.67294 9.15311C7.87628 8.98162 7.97795 8.75379 7.97795 8.46961C7.97795 8.26137 7.92772 8.07764 7.82728 7.9184C7.72684 7.75916 7.58352 7.63421 7.39734 7.54357C7.2136 7.45293 6.99434 7.40761 6.73956 7.40761H5.40562V9.40667ZM5.40562 6.3309H6.58522C6.80325 6.3309 6.99679 6.29293 7.16583 6.21699C7.33732 6.13859 7.47206 6.02835 7.57005 5.88626C7.67049 5.74417 7.72071 5.5739 7.72071 5.37547C7.72071 5.10354 7.62395 4.88428 7.43041 4.71769C7.23932 4.5511 6.96739 4.4678 6.61461 4.4678H5.40562V6.3309Z" fill="black"/>
</svg>
