<svg width="144" height="63" viewBox="0 0 144 63" fill="none" xmlns="http://www.w3.org/2000/svg">
    <rect width="144" height="63" rx="31.5" fill="white"/>
    <path d="M68.2393 28.674C68.1882 28.1584 67.9688 27.7578 67.581 27.4723C67.1932 27.1868 66.6669 27.044 66.0021 27.044C65.5504 27.044 65.169 27.108 64.858 27.2358C64.5469 27.3594 64.3082 27.532 64.142 27.7536C63.9801 27.9751 63.8991 28.2266 63.8991 28.5078C63.8906 28.7422 63.9396 28.9467 64.0462 29.1214C64.157 29.2962 64.3082 29.4474 64.5 29.5753C64.6918 29.6989 64.9134 29.8075 65.1648 29.9013C65.4162 29.9908 65.6847 30.0675 65.9702 30.1314L67.1463 30.4126C67.7173 30.5405 68.2415 30.7109 68.7188 30.924C69.196 31.1371 69.6094 31.3991 69.9588 31.7102C70.3082 32.0213 70.5788 32.3878 70.7706 32.8097C70.9666 33.2315 71.0668 33.7152 71.071 34.2607C71.0668 35.0618 70.8622 35.7564 70.4574 36.3445C70.0568 36.9283 69.4773 37.3821 68.7188 37.706C67.9645 38.0256 67.0547 38.1854 65.9893 38.1854C64.9325 38.1854 64.0121 38.0234 63.228 37.6996C62.4482 37.3757 61.8388 36.8963 61.3999 36.2614C60.9652 35.6222 60.7372 34.8317 60.7159 33.8899H63.3942C63.424 34.3288 63.5497 34.6953 63.7713 34.9893C63.9972 35.2791 64.2976 35.4986 64.6726 35.6477C65.0518 35.7926 65.4801 35.8651 65.9574 35.8651C66.4261 35.8651 66.8331 35.7969 67.1783 35.6605C67.5277 35.5241 67.7983 35.3345 67.9901 35.0916C68.1818 34.8487 68.2777 34.5696 68.2777 34.2543C68.2777 33.9602 68.1903 33.7131 68.0156 33.5128C67.8452 33.3125 67.5938 33.142 67.2614 33.0014C66.9332 32.8608 66.5305 32.733 66.0533 32.6179L64.6278 32.2599C63.5241 31.9915 62.6527 31.5717 62.0135 31.0007C61.3743 30.4297 61.0568 29.6605 61.0611 28.6932C61.0568 27.9006 61.2678 27.2081 61.6939 26.6158C62.1243 26.0234 62.7145 25.5611 63.4645 25.2287C64.2145 24.8963 65.0668 24.7301 66.0213 24.7301C66.9929 24.7301 67.8409 24.8963 68.5653 25.2287C69.294 25.5611 69.8608 26.0234 70.2656 26.6158C70.6705 27.2081 70.8793 27.8942 70.892 28.674H68.2393ZM75.0646 32.3239V38H72.3416V24.9091H74.9879V29.9141H75.1029C75.3245 29.3345 75.6825 28.8807 76.1768 28.5526C76.6711 28.2202 77.2911 28.054 78.0369 28.054C78.7187 28.054 79.3132 28.2031 79.8203 28.5014C80.3316 28.7955 80.7279 29.2195 81.0092 29.7734C81.2947 30.3232 81.4353 30.9815 81.4311 31.7486V38H78.708V32.2344C78.7123 31.6293 78.5589 31.1584 78.2478 30.8217C77.941 30.4851 77.5106 30.3168 76.9566 30.3168C76.5859 30.3168 76.2578 30.3956 75.9723 30.5533C75.691 30.7109 75.4694 30.9411 75.3075 31.2436C75.1498 31.5419 75.0688 31.902 75.0646 32.3239ZM85.8337 38.1854C85.2073 38.1854 84.649 38.0767 84.159 37.8594C83.6689 37.6378 83.2812 37.3118 82.9956 36.8814C82.7144 36.4467 82.5738 35.9055 82.5738 35.2578C82.5738 34.7124 82.6739 34.2543 82.8742 33.8835C83.0745 33.5128 83.3472 33.2145 83.6924 32.9886C84.0375 32.7628 84.4296 32.5923 84.8685 32.4773C85.3117 32.3622 85.7762 32.2812 86.262 32.2344C86.833 32.1747 87.2932 32.1193 87.6427 32.0682C87.9921 32.0128 88.2456 31.9318 88.4033 31.8253C88.561 31.7187 88.6398 31.5611 88.6398 31.3523V31.3139C88.6398 30.9091 88.512 30.5959 88.2563 30.3743C88.0049 30.1527 87.6469 30.0419 87.1824 30.0419C86.6924 30.0419 86.3025 30.1506 86.0127 30.3679C85.7229 30.581 85.5312 30.8494 85.4374 31.1733L82.9189 30.9688C83.0468 30.3722 83.2982 29.8565 83.6732 29.4219C84.0482 28.983 84.5319 28.6463 85.1242 28.4119C85.7208 28.1733 86.4111 28.054 87.1952 28.054C87.7407 28.054 88.2627 28.1179 88.7613 28.2457C89.2641 28.3736 89.7094 28.5717 90.0972 28.8402C90.4892 29.1087 90.7982 29.4538 91.024 29.8757C91.2499 30.2933 91.3628 30.794 91.3628 31.3778V38H88.7804V36.6385H88.7037C88.5461 36.9453 88.3351 37.2159 88.0709 37.4503C87.8067 37.6804 87.4892 37.8615 87.1185 37.9936C86.7478 38.1214 86.3195 38.1854 85.8337 38.1854ZM86.6135 36.3061C87.0141 36.3061 87.3678 36.2273 87.6746 36.0696C87.9814 35.9077 88.2222 35.6903 88.3969 35.4176C88.5716 35.1449 88.659 34.8359 88.659 34.4908V33.4489C88.5738 33.5043 88.4566 33.5554 88.3074 33.6023C88.1625 33.6449 87.9985 33.6854 87.8152 33.7237C87.632 33.7578 87.4488 33.7898 87.2655 33.8196C87.0823 33.8452 86.9161 33.8686 86.7669 33.8899C86.4473 33.9368 86.1682 34.0114 85.9296 34.1136C85.691 34.2159 85.5056 34.3544 85.3735 34.5291C85.2414 34.6996 85.1753 34.9126 85.1753 35.1683C85.1753 35.5391 85.3096 35.8224 85.578 36.0185C85.8508 36.2102 86.1959 36.3061 86.6135 36.3061ZM92.9354 38V28.1818H95.5753V29.8949H95.6776C95.8566 29.2855 96.157 28.8253 96.5789 28.5142C97.0007 28.1989 97.4865 28.0412 98.0362 28.0412C98.1726 28.0412 98.3196 28.0497 98.4773 28.0668C98.635 28.0838 98.7735 28.1072 98.8928 28.1371V30.5533C98.7649 30.5149 98.5881 30.4808 98.3622 30.451C98.1364 30.4212 97.9297 30.4062 97.7422 30.4062C97.3416 30.4062 96.9837 30.4936 96.6684 30.6683C96.3573 30.8388 96.1101 31.0774 95.9269 31.3842C95.7479 31.6911 95.6584 32.0447 95.6584 32.4453V38H92.9354ZM103.778 38.1918C102.768 38.1918 101.899 37.9872 101.17 37.5781C100.446 37.1648 99.8874 36.581 99.4954 35.8267C99.1033 35.0682 98.9073 34.1712 98.9073 33.1357C98.9073 32.1257 99.1033 31.2393 99.4954 30.4766C99.8874 29.7138 100.439 29.1193 101.151 28.6932C101.867 28.267 102.706 28.054 103.669 28.054C104.317 28.054 104.92 28.1584 105.478 28.3672C106.041 28.5717 106.531 28.8807 106.948 29.294C107.37 29.7074 107.698 30.2273 107.933 30.8537C108.167 31.4759 108.284 32.2045 108.284 33.0398V33.7876H99.9939V32.1001H105.721C105.721 31.7081 105.636 31.3608 105.466 31.0582C105.295 30.7557 105.059 30.5192 104.756 30.3487C104.458 30.174 104.11 30.0866 103.714 30.0866C103.301 30.0866 102.934 30.1825 102.615 30.3743C102.299 30.5618 102.052 30.8153 101.873 31.1349C101.694 31.4503 101.603 31.8018 101.598 32.1896V33.794C101.598 34.2798 101.688 34.6996 101.867 35.0533C102.05 35.407 102.308 35.6797 102.64 35.8714C102.973 36.0632 103.367 36.1591 103.823 36.1591C104.125 36.1591 104.402 36.1165 104.654 36.0312C104.905 35.946 105.12 35.8182 105.299 35.6477C105.478 35.4773 105.615 35.2685 105.708 35.0213L108.227 35.1875C108.099 35.7926 107.837 36.321 107.441 36.7727C107.049 37.2202 106.542 37.5696 105.919 37.821C105.301 38.0682 104.588 38.1918 103.778 38.1918Z" fill="#323232"/>
    </svg>
    