<svg width="741" height="453" viewBox="0 0 741 453" fill="none" xmlns="http://www.w3.org/2000/svg">
<g clip-path="url(#clip0_140_225)">
<path fill-rule="evenodd" clip-rule="evenodd" d="M372.5 0.5C306.226 0.5 252.5 54.2258 252.5 120.5V222.5C252.5 232.441 260.559 240.5 270.5 240.5H372.5C438.774 240.5 492.5 186.774 492.5 120.5C492.5 54.2258 438.774 0.5 372.5 0.5ZM370.695 119.301C359.097 119.301 349.695 109.899 349.695 98.3008C349.695 86.7028 359.097 77.3008 370.695 77.3008C382.293 77.3008 391.695 86.7028 391.695 98.3008C391.695 109.899 382.293 119.301 370.695 119.301ZM370.695 179.301C359.097 179.301 349.695 169.899 349.695 158.301C349.695 146.703 359.097 137.301 370.695 137.301C382.293 137.301 391.695 146.703 391.695 158.301C391.695 169.899 382.293 179.301 370.695 179.301Z" fill="#FF3615"/>
<path d="M565.023 419.156H579.711C580.383 421.556 582.495 422.9 585.183 422.9C587.679 422.9 589.599 421.94 589.599 419.924C589.599 418.292 588.351 417.716 586.239 417.236L577.791 415.508C570.591 413.972 565.887 410.516 565.887 402.932C565.887 393.716 574.143 388.34 584.319 388.34C596.127 388.34 602.559 393.812 603.903 402.356H589.983C589.503 400.532 588.159 398.9 584.703 398.9C582.495 398.9 580.671 399.86 580.671 401.78C580.671 403.124 581.631 403.796 583.647 404.18L592.191 406.196C600.063 408.02 604.287 412.148 604.287 419.156C604.287 428.372 595.935 433.46 585.375 433.46C574.335 433.46 566.367 428.468 565.023 419.156Z" fill="black"/>
<path d="M547.406 417.428H561.326C559.79 427.412 552.302 433.46 541.07 433.46C527.822 433.46 519.086 424.34 519.086 410.9C519.086 397.556 528.302 388.34 540.782 388.34C554.03 388.34 561.518 397.172 561.518 410.036V413.78H533.582C534.062 418.964 536.75 421.748 541.07 421.748C544.142 421.748 546.542 420.404 547.406 417.428ZM540.782 400.052C537.23 400.052 534.83 402.26 533.87 406.292H546.926C546.734 402.74 544.526 400.052 540.782 400.052Z" fill="black"/>
<path d="M498.399 429.524V426.452C496.479 428.66 492.927 430.676 488.127 430.676C476.031 430.676 469.023 421.364 469.023 409.46C469.023 397.652 476.031 388.34 488.127 388.34C492.927 388.34 496.479 390.26 498.399 392.564V389.3H513.279V426.26C513.279 441.428 503.967 448.724 490.815 448.724C479.295 448.724 471.039 443.06 469.503 433.076H483.999C484.863 436.148 487.167 437.684 490.815 437.684C495.519 437.684 498.399 435.188 498.399 429.524ZM498.399 415.028V403.892C497.247 401.972 494.847 400.244 491.871 400.244C486.879 400.244 483.903 404.084 483.903 409.46C483.903 414.932 486.879 418.676 491.871 418.676C494.847 418.676 497.247 417.044 498.399 415.028Z" fill="black"/>
<path d="M463.983 432.498H449.487V430.29C448.047 431.73 443.727 433.266 439.119 433.266C430.575 433.266 423.375 428.466 423.375 419.346C423.375 410.994 430.575 405.618 439.983 405.618C443.535 405.618 447.759 406.77 449.487 408.018V405.234C449.487 402.45 447.855 400.05 444.207 400.05C441.423 400.05 439.791 401.298 439.119 403.218H424.911C426.159 394.866 433.551 388.242 444.687 388.242C456.975 388.242 463.983 394.77 463.983 406.002V432.498ZM449.487 420.402V417.906C448.527 416.082 445.935 414.93 443.151 414.93C440.175 414.93 437.199 416.178 437.199 419.058C437.199 422.034 440.175 423.282 443.151 423.282C445.935 423.282 448.527 422.13 449.487 420.402Z" fill="black"/>
<path d="M379.961 419.156H394.649C395.321 421.556 397.433 422.9 400.121 422.9C402.617 422.9 404.537 421.94 404.537 419.924C404.537 418.292 403.289 417.716 401.177 417.236L392.729 415.508C385.529 413.972 380.825 410.516 380.825 402.932C380.825 393.716 389.081 388.34 399.257 388.34C411.065 388.34 417.497 393.812 418.841 402.356H404.921C404.441 400.532 403.097 398.9 399.641 398.9C397.433 398.9 395.609 399.86 395.609 401.78C395.609 403.124 396.569 403.796 398.585 404.18L407.129 406.196C415.001 408.02 419.225 412.148 419.225 419.156C419.225 428.372 410.873 433.46 400.313 433.46C389.273 433.46 381.305 428.468 379.961 419.156Z" fill="black"/>
<path d="M336.93 419.156H351.618C352.29 421.556 354.402 422.9 357.09 422.9C359.586 422.9 361.506 421.94 361.506 419.924C361.506 418.292 360.258 417.716 358.146 417.236L349.698 415.508C342.498 413.972 337.794 410.516 337.794 402.932C337.794 393.716 346.05 388.34 356.226 388.34C368.034 388.34 374.466 393.812 375.81 402.356H361.89C361.41 400.532 360.066 398.9 356.61 398.9C354.402 398.9 352.578 399.86 352.578 401.78C352.578 403.124 353.538 403.796 355.554 404.18L364.098 406.196C371.97 408.02 376.194 412.148 376.194 419.156C376.194 428.372 367.842 433.46 357.282 433.46C346.242 433.46 338.274 428.468 336.93 419.156Z" fill="black"/>
<path d="M319.312 417.428H333.232C331.696 427.412 324.208 433.46 312.976 433.46C299.728 433.46 290.992 424.34 290.992 410.9C290.992 397.556 300.208 388.34 312.688 388.34C325.936 388.34 333.424 397.172 333.424 410.036V413.78H305.488C305.968 418.964 308.656 421.748 312.976 421.748C316.048 421.748 318.448 420.404 319.312 417.428ZM312.688 400.052C309.136 400.052 306.736 402.26 305.776 406.292H318.832C318.64 402.74 316.432 400.052 312.688 400.052Z" fill="black"/>
<path d="M258.164 432.499H248.18L235.892 397.459V432.499H221.492V373.555H240.308L253.268 410.227L266.132 373.555H284.852V432.499H270.356V397.459L258.164 432.499Z" fill="black"/>
<path d="M194.546 432.498H180.049V430.29C178.609 431.73 174.29 433.266 169.682 433.266C161.138 433.266 153.938 428.466 153.938 419.346C153.938 410.994 161.138 405.618 170.546 405.618C174.098 405.618 178.321 406.77 180.049 408.018V405.234C180.049 402.45 178.417 400.05 174.77 400.05C171.985 400.05 170.354 401.298 169.682 403.218H155.473C156.721 394.866 164.113 388.242 175.249 388.242C187.537 388.242 194.546 394.77 194.546 406.002V432.498ZM180.049 420.402V417.906C179.089 416.082 176.498 414.93 173.714 414.93C170.738 414.93 167.762 416.178 167.762 419.058C167.762 422.034 170.738 423.282 173.714 423.282C176.498 423.282 179.089 422.13 180.049 420.402Z" fill="black"/>
<path d="M147.869 370.1V432.5H132.797V370.1H147.869Z" fill="black"/>
<path d="M124.619 370.1V432.5H109.547V370.1H124.619Z" fill="black"/>
<path d="M103.683 410.9C103.683 424.244 94.7554 433.46 81.6034 433.46C68.5474 433.46 59.5234 424.244 59.5234 410.9C59.5234 397.556 68.5474 388.34 81.6034 388.34C94.7554 388.34 103.683 397.556 103.683 410.9ZM88.8994 410.9C88.8994 404.948 86.3074 400.724 81.6034 400.724C76.9954 400.724 74.4034 404.948 74.4034 410.9C74.4034 416.852 76.9954 420.98 81.6034 420.98C86.3074 420.98 88.8994 416.852 88.8994 410.9Z" fill="black"/>
<path d="M40.2122 432.499H25.1403L3.15625 373.555H19.6683L33.0122 411.667L46.3563 373.555H62.1963L40.2122 432.499Z" fill="black"/>
<rect x="630.5" y="382.5" width="108" height="52" rx="6" stroke="black" stroke-width="4"/>
<path d="M712.069 423.757C710.628 423.757 709.345 423.508 708.218 423.008C707.091 422.498 706.199 421.749 705.542 420.759C704.896 419.759 704.572 418.515 704.572 417.025C704.572 415.771 704.803 414.718 705.263 413.865C705.724 413.012 706.351 412.326 707.145 411.807C707.938 411.288 708.84 410.896 709.849 410.631C710.868 410.367 711.936 410.18 713.054 410.073C714.367 409.935 715.425 409.808 716.229 409.69C717.032 409.563 717.615 409.377 717.978 409.132C718.34 408.887 718.522 408.524 718.522 408.044V407.956C718.522 407.025 718.228 406.305 717.64 405.795C717.062 405.286 716.238 405.031 715.17 405.031C714.043 405.031 713.147 405.281 712.48 405.781C711.814 406.27 711.373 406.888 711.157 407.633L705.366 407.162C705.66 405.79 706.238 404.605 707.1 403.605C707.963 402.596 709.075 401.822 710.437 401.283C711.809 400.734 713.397 400.459 715.2 400.459C716.454 400.459 717.654 400.606 718.801 400.9C719.957 401.194 720.981 401.65 721.873 402.267C722.775 402.885 723.485 403.679 724.004 404.649C724.524 405.609 724.783 406.76 724.783 408.103V423.331H718.845V420.2H718.669C718.306 420.906 717.821 421.528 717.213 422.067C716.606 422.596 715.876 423.013 715.023 423.316C714.171 423.61 713.186 423.757 712.069 423.757ZM713.862 419.436C714.783 419.436 715.597 419.255 716.302 418.892C717.008 418.52 717.561 418.02 717.963 417.393C718.365 416.766 718.566 416.055 718.566 415.261V412.865C718.37 412.993 718.1 413.11 717.757 413.218C717.424 413.316 717.047 413.409 716.625 413.497C716.204 413.576 715.783 413.649 715.361 413.718C714.94 413.777 714.558 413.831 714.215 413.88C713.48 413.987 712.838 414.159 712.289 414.394C711.74 414.629 711.314 414.948 711.01 415.35C710.707 415.742 710.555 416.232 710.555 416.819C710.555 417.672 710.863 418.324 711.481 418.774C712.108 419.215 712.902 419.436 713.862 419.436Z" fill="black"/>
<path d="M703.622 400.752V405.456H690.025V400.752H703.622ZM693.112 395.343H699.374V416.392C699.374 416.97 699.462 417.421 699.639 417.745C699.815 418.058 700.06 418.279 700.373 418.406C700.697 418.533 701.069 418.597 701.491 418.597C701.785 418.597 702.079 418.573 702.373 418.524C702.667 418.465 702.892 418.421 703.049 418.391L704.034 423.051C703.72 423.149 703.279 423.262 702.711 423.389C702.142 423.526 701.451 423.609 700.638 423.639C699.129 423.698 697.806 423.497 696.669 423.036C695.542 422.576 694.665 421.86 694.038 420.89C693.411 419.92 693.102 418.695 693.112 417.215V395.343Z" fill="black"/>
<path d="M679.234 423.772C676.911 423.772 674.912 423.302 673.237 422.361C671.571 421.41 670.287 420.068 669.386 418.333C668.484 416.589 668.033 414.526 668.033 412.145C668.033 409.823 668.484 407.784 669.386 406.03C670.287 404.276 671.556 402.909 673.193 401.929C674.839 400.949 676.769 400.459 678.984 400.459C680.473 400.459 681.86 400.7 683.144 401.18C684.437 401.65 685.564 402.361 686.525 403.311C687.495 404.262 688.249 405.457 688.788 406.898C689.327 408.328 689.597 410.004 689.597 411.925V413.644H670.532V409.764H683.702C683.702 408.862 683.506 408.064 683.114 407.368C682.722 406.672 682.179 406.128 681.483 405.736C680.797 405.335 679.998 405.134 679.087 405.134C678.136 405.134 677.294 405.354 676.559 405.795C675.833 406.226 675.265 406.809 674.854 407.544C674.442 408.27 674.231 409.078 674.221 409.97V413.659C674.221 414.776 674.427 415.742 674.839 416.555C675.26 417.368 675.853 417.995 676.617 418.436C677.382 418.877 678.288 419.098 679.337 419.098C680.032 419.098 680.669 419 681.248 418.804C681.826 418.608 682.321 418.314 682.732 417.922C683.144 417.53 683.457 417.05 683.673 416.481L689.464 416.864C689.17 418.255 688.568 419.47 687.656 420.509C686.755 421.538 685.589 422.341 684.158 422.92C682.737 423.488 681.096 423.772 679.234 423.772Z" fill="black"/>
<path d="M643.76 423.331V393.227H655.813C658.028 393.227 659.875 393.555 661.354 394.212C662.834 394.868 663.946 395.78 664.691 396.946C665.436 398.102 665.808 399.435 665.808 400.944C665.808 402.12 665.573 403.154 665.103 404.046C664.632 404.927 663.986 405.653 663.162 406.221C662.349 406.78 661.418 407.176 660.37 407.412V407.706C661.516 407.755 662.589 408.078 663.589 408.676C664.598 409.273 665.416 410.111 666.043 411.189C666.671 412.257 666.984 413.531 666.984 415.011C666.984 416.608 666.587 418.034 665.794 419.288C665.01 420.533 663.848 421.518 662.31 422.243C660.771 422.968 658.875 423.331 656.621 423.331H643.76ZM650.124 418.127H655.313C657.087 418.127 658.38 417.789 659.194 417.113C660.007 416.427 660.414 415.516 660.414 414.379C660.414 413.546 660.213 412.811 659.811 412.174C659.409 411.537 658.836 411.037 658.091 410.675C657.356 410.312 656.479 410.131 655.46 410.131H650.124V418.127ZM650.124 405.824H654.843C655.715 405.824 656.489 405.672 657.165 405.368C657.851 405.055 658.39 404.614 658.782 404.046C659.184 403.477 659.385 402.796 659.385 402.002C659.385 400.915 658.998 400.038 658.224 399.371C657.459 398.705 656.372 398.372 654.96 398.372H650.124V405.824Z" fill="black"/>
</g>
<defs>
<clipPath id="clip0_140_225">
<rect width="740" height="452" fill="white" transform="translate(0.5 0.5)"/>
</clipPath>
</defs>
</svg>
