<svg width="1024" height="1024" viewBox="0 0 1024 1024" fill="none" xmlns="http://www.w3.org/2000/svg">
<path fill-rule="evenodd" clip-rule="evenodd" d="M524 0C247.858 0 24 223.858 24 500V925C24 966.421 57.5786 1000 99 1000H524C800.142 1000 1024 776.142 1024 500C1024 223.858 800.142 0 524 0ZM516.48 745.004C468.156 745.004 428.98 705.828 428.98 657.504C428.98 609.179 468.156 570.004 516.48 570.004C564.805 570.004 603.98 609.179 603.98 657.504C603.98 705.828 564.805 745.004 516.48 745.004ZM516.48 495.004C468.156 495.004 428.98 455.829 428.98 407.504C428.98 359.179 468.156 320.004 516.48 320.004C564.805 320.004 603.98 359.179 603.98 407.504C603.98 455.829 564.805 495.004 516.48 495.004Z" fill="#FF3615"/>
</svg>
