<svg width="112" height="56" viewBox="0 0 112 56" fill="none" xmlns="http://www.w3.org/2000/svg">
<rect x="2" y="2" width="108" height="52" rx="6" stroke="black" stroke-width="4"/>
<path d="M83.5688 43.2574C82.1283 43.2574 80.8445 43.0075 79.7176 42.5077C78.5907 41.9982 77.699 41.2485 77.0424 40.2588C76.3956 39.2593 76.0723 38.0148 76.0723 36.5253C76.0723 35.2709 76.3026 34.2175 76.7631 33.365C77.2237 32.5124 77.8508 31.8265 78.6446 31.3071C79.4383 30.7877 80.3399 30.3958 81.3492 30.1312C82.3683 29.8666 83.4365 29.6804 84.5536 29.5726C85.8667 29.4354 86.925 29.308 87.7286 29.1904C88.5321 29.0631 89.1152 28.8769 89.4778 28.6319C89.8403 28.3869 90.0216 28.0243 90.0216 27.5442V27.456C90.0216 26.525 89.7276 25.8048 89.1397 25.2952C88.5615 24.7856 87.7384 24.5309 86.6703 24.5309C85.5433 24.5309 84.6467 24.7807 83.9803 25.2805C83.314 25.7705 82.873 26.3878 82.6574 27.1326L76.866 26.6622C77.16 25.2903 77.7382 24.1046 78.6005 23.1051C79.4628 22.0957 80.5751 21.3216 81.9372 20.7826C83.3091 20.2339 84.8966 19.9595 86.6996 19.9595C87.954 19.9595 89.1544 20.1065 90.3009 20.4004C91.4572 20.6944 92.4813 21.1501 93.373 21.7675C94.2745 22.3848 94.985 23.1786 95.5044 24.1487C96.0237 25.109 96.2834 26.2604 96.2834 27.603V42.8311H90.345V39.7002H90.1686C89.806 40.4058 89.321 41.028 88.7134 41.567C88.1059 42.0962 87.3758 42.5126 86.5233 42.8164C85.6707 43.1104 84.6859 43.2574 83.5688 43.2574ZM85.362 38.9359C86.2832 38.9359 87.0965 38.7546 87.8021 38.392C88.5076 38.0197 89.0613 37.5199 89.4631 36.8927C89.8648 36.2656 90.0657 35.5551 90.0657 34.7614V32.3654C89.8697 32.4928 89.6003 32.6104 89.2573 32.7182C88.9241 32.8162 88.5468 32.9093 88.1255 32.9975C87.7041 33.0759 87.2827 33.1494 86.8613 33.218C86.44 33.2768 86.0578 33.3307 85.7148 33.3797C84.9799 33.4875 84.338 33.6589 83.7892 33.8941C83.2405 34.1293 82.8142 34.4478 82.5104 34.8496C82.2066 35.2415 82.0548 35.7315 82.0548 36.3195C82.0548 37.172 82.3634 37.8237 82.9808 38.2744C83.608 38.7154 84.4017 38.9359 85.362 38.9359Z" fill="black"/>
<path d="M75.122 20.2525V24.9562H61.5254V20.2525H75.122ZM64.6122 14.8433H70.874V35.8922C70.874 36.4704 70.9622 36.9212 71.1385 37.2445C71.3149 37.5581 71.5599 37.7786 71.8735 37.906C72.1969 38.0334 72.5692 38.0971 72.9906 38.0971C73.2846 38.0971 73.5786 38.0726 73.8726 38.0236C74.1665 37.9648 74.3919 37.9207 74.5487 37.8913L75.5335 42.5509C75.22 42.6489 74.779 42.7616 74.2106 42.889C73.6423 43.0262 72.9514 43.1095 72.1381 43.1389C70.629 43.1977 69.3061 42.9968 68.1693 42.5362C67.0424 42.0756 66.1654 41.3603 65.5382 40.3901C64.9111 39.42 64.6024 38.1951 64.6122 36.7154V14.8433Z" fill="black"/>
<path d="M50.7338 43.2721C48.4114 43.2721 46.4123 42.8017 44.7367 41.861C43.0708 40.9105 41.7871 39.5679 40.8855 37.8335C39.984 36.0892 39.5332 34.0264 39.5332 31.6452C39.5332 29.3227 39.984 27.2845 40.8855 25.5304C41.7871 23.7763 43.0561 22.4093 44.6926 21.4294C46.3388 20.4494 48.2693 19.9595 50.484 19.9595C51.9735 19.9595 53.3601 20.1996 54.6438 20.6797C55.9373 21.1501 57.0642 21.8605 58.0246 22.8111C58.9947 23.7616 59.7492 24.9571 60.2882 26.3976C60.8272 27.8283 61.0966 29.504 61.0966 31.4247V33.1445H42.032V29.2639H55.2023C55.2023 28.3624 55.0064 27.5638 54.6144 26.868C54.2224 26.1723 53.6785 25.6284 52.9828 25.2364C52.2968 24.8346 51.4982 24.6338 50.5869 24.6338C49.6363 24.6338 48.7936 24.8542 48.0586 25.2952C47.3335 25.7264 46.7651 26.3094 46.3535 27.0444C45.942 27.7695 45.7313 28.578 45.7215 29.4697V33.1592C45.7215 34.2763 45.9273 35.2415 46.3388 36.0549C46.7602 36.8682 47.3531 37.4954 48.1174 37.9364C48.8818 38.3773 49.7882 38.5978 50.8367 38.5978C51.5325 38.5978 52.1694 38.4998 52.7476 38.3038C53.3258 38.1078 53.8206 37.8139 54.2322 37.4219C54.6438 37.0299 54.9574 36.5498 55.1729 35.9814L60.9644 36.3636C60.6704 37.7551 60.0677 38.9702 59.1564 40.0089C58.2548 41.0379 57.0887 41.8414 55.658 42.4196C54.2371 42.9879 52.5957 43.2721 50.7338 43.2721Z" fill="black"/>
<path d="M15.2598 42.8306V12.7271H27.313C29.5276 12.7271 31.3748 13.0553 32.8545 13.7119C34.3342 14.3684 35.4464 15.2798 36.1911 16.4459C36.9359 17.6022 37.3083 18.9349 37.3083 20.444C37.3083 21.6199 37.0731 22.6538 36.6027 23.5455C36.1324 24.4275 35.4856 25.1526 34.6625 25.721C33.8491 26.2795 32.9182 26.6764 31.8696 26.9116V27.2056C33.0162 27.2546 34.0892 27.5779 35.0887 28.1757C36.0981 28.7735 36.9163 29.6113 37.5435 30.6892C38.1706 31.7574 38.4842 33.0313 38.4842 34.511C38.4842 36.1083 38.0873 37.5341 37.2936 38.7884C36.5096 40.0329 35.3484 41.0177 33.8099 41.7429C32.2714 42.468 30.3752 42.8306 28.1214 42.8306H15.2598ZM21.6244 37.6272H26.8132C28.5869 37.6272 29.8804 37.2891 30.6937 36.6129C31.5071 35.927 31.9137 35.0156 31.9137 33.8789C31.9137 33.046 31.7129 32.311 31.3111 31.6741C30.9093 31.0371 30.336 30.5373 29.5913 30.1748C28.8563 29.8122 27.9793 29.6309 26.9602 29.6309H21.6244V37.6272ZM21.6244 25.3241H26.3428C27.215 25.3241 27.9891 25.1722 28.6653 24.8684C29.3512 24.5549 29.8902 24.1139 30.2822 23.5455C30.6839 22.9772 30.8848 22.2961 30.8848 21.5024C30.8848 20.4146 30.4977 19.5376 29.7236 18.8712C28.9592 18.2049 27.8715 17.8717 26.4604 17.8717H21.6244V25.3241Z" fill="black"/>
</svg>
